<svg width="67" height="67" viewBox="0 0 67 67" fill="none" xmlns="http://www.w3.org/2000/svg">
<path d="M50.9286 28.0485C51.5408 29.2146 51.7461 30.4584 51.7278 31.745H42.8834C43.4206 28.2839 44.8435 26.1731 47.667 26.2365C49.3091 26.2365 50.3963 26.8414 50.9286 28.0485ZM18.3855 32.7597H25.9232L22.0094 17.9739C21.5179 21.3183 19.7943 27.0163 18.3855 32.7597ZM67 0V67H0V0H67ZM35.9095 47.8354L25.5474 12.9004H18.3855C18.3855 13.6751 18.3358 14.5199 18.2405 14.8574C18.1431 15.1971 18.0955 15.5097 18.0955 15.7996L8.94241 47.8354H14.3579L16.9358 37.9783H27.083L29.9206 47.8354H35.9095ZM57.0894 32.0349C57.0894 29.7155 56.412 27.3963 55.06 25.077C53.7056 22.7576 51.291 21.5979 47.812 21.5979C44.4282 21.5979 41.7962 22.9275 39.9118 25.5843C36.3571 30.2721 35.9863 39.127 39.7669 44.2839C41.5539 46.9429 44.5256 48.2704 48.6818 48.2704C50.9578 48.2646 53.1281 47.9901 55.0599 47.1106C55.2853 46.8784 55.3436 46.7682 55.3498 46.3857V42.4719C55.3433 42.2004 55.1945 42.1892 54.915 42.1821C52.0865 43.5644 47.9751 43.5152 45.8951 42.3159C43.9597 41.2 42.8219 38.8677 42.8834 36.0939H51.146C52.5957 36.0939 53.7553 36.0711 54.625 36.0214C55.4948 35.9738 56.1221 35.9013 56.5094 35.8039C56.6047 35.8039 56.6772 35.7811 56.7269 35.7314L56.9444 35.5139C56.9444 35.2241 56.967 34.7665 57.0169 34.1368C57.0644 33.5094 57.0894 32.8096 57.0894 32.0349Z" fill="#2D2D2D"/>
</svg>
