<svg width="67" height="67" viewBox="0 0 67 67" fill="none" xmlns="http://www.w3.org/2000/svg">
<path fill-rule="evenodd" clip-rule="evenodd" d="M22.5142 14.1339H29.4935L39.5295 47.757H33.4673L30.971 38.1795H21.1898L18.6425 47.7571H13.2933L22.5144 15.7132L22.5142 14.1339ZM29.5954 33.238L26.1312 19.0243L22.5651 33.2378L29.5954 33.238ZM49.9222 22.7693H44.4202V47.7571H49.9222V22.7693ZM47.1002 13.0612C45.3178 13.0612 43.8728 14.4895 43.8728 16.2516C43.8728 18.0136 45.3178 19.442 47.1002 19.442C48.8826 19.442 50.3277 18.0137 50.3277 16.2517C50.3277 14.4897 48.8828 13.0612 47.1002 13.0612ZM67 67H0V0H67V67Z" fill="#2D2D2D"/>
</svg>
