<svg width="28" height="28" viewBox="0 0 28 28" fill="none" xmlns="http://www.w3.org/2000/svg">
<g clip-path="url(#clip0_2_9)">
<path d="M25.5619 8.54848H17.4906V6.31445H25.5619V8.54848ZM27.5521 19.7186C27.0424 21.1674 25.2126 23.0696 21.6704 23.0696C18.126 23.0696 15.2549 21.1383 15.2549 16.7306C15.2549 12.3631 17.9357 10.1179 21.5574 10.1179C25.1111 10.1179 27.2811 12.1084 27.755 15.0618C27.845 15.627 27.8807 16.3888 27.8646 17.4522H18.6091C18.759 21.0389 22.6251 21.1517 23.8993 19.7186H27.5521ZM18.6898 15.2506H24.4147C24.2936 13.5225 23.1048 12.7719 21.5586 12.7719C19.8682 12.7719 18.9331 13.6298 18.6898 15.2506ZM7.65054 23.0562H0.194946V6.33791H8.21207C14.5261 6.42839 14.6461 12.4189 11.3484 14.052C15.339 15.4594 15.4728 23.0562 7.65054 23.0562ZM3.65408 13.0165H7.7866C10.6784 13.0165 11.1373 9.66549 7.42685 9.66549H3.65408V13.0165ZM7.56406 16.3676H3.65408V19.7365H7.50641C11.029 19.7365 10.8133 16.3676 7.56406 16.3676Z" fill="#2D2D2D"/>
</g>
<defs>
<clipPath id="clip0_2_9">
<rect width="27.6731" height="26.8083" fill="white" transform="translate(0.194946 0.729492)"/>
</clipPath>
</defs>
</svg>
