<svg width="51" height="68" viewBox="0 0 51 68" fill="none" xmlns="http://www.w3.org/2000/svg">
<path d="M12.7557 0H20.06V3.05433H15.81V6.10867H20.06V9.163H12.7557V0ZM21.5192 0H28.8263V2.65767H24.5763V3.1875H28.8263V9.29617H21.5192V6.50817H25.7692V5.9755H21.5192V0ZM30.2883 0H37.5898V2.65767H33.3398V3.1875H37.5898V9.29617H30.2883V6.50817H34.5383V5.9755H30.2883V0Z" fill="#2D2D2D"/>
<path fill-rule="evenodd" clip-rule="evenodd" d="M25.4745 68L5.79983 62.5373L0 13.3648H51L45.203 62.5317L25.4745 68ZM11.4665 35.6235L12.0077 41.6528H32.9092L32.2093 49.4728L25.483 51.2918H25.4773L18.7623 49.4785L18.3317 44.6703H12.2768L13.1212 54.1393L25.4745 57.5677L37.8477 54.1393L39.355 37.2413L39.5023 35.6235L40.5903 23.4147H10.3813L10.931 29.4468H33.983L33.4333 35.6235H11.4665Z" fill="#2D2D2D"/>
</svg>
