<svg width="54" height="24" viewBox="0 0 54 24" fill="none" xmlns="http://www.w3.org/2000/svg">
<g id="Group 3">
<g id="ri:english-input">
<path id="Vector" d="M44 10H46V10.757C46.6777 10.3042 47.4656 10.044 48.2796 10.0041C49.0936 9.96414 49.9032 10.146 50.6219 10.5303C51.3406 10.9147 51.9415 11.4869 52.3603 12.1861C52.7791 12.8852 53.0002 13.685 53 14.5V20H51V14.5C51 13.07 49.825 12 48.5 12C47.175 12 46 13.07 46 14.5V20H44V10ZM42 4V6H34V11H42V13H34V18H42V20H32V4H42Z" fill="white"/>
</g>
<g id="bx:world">
<path id="Vector_2" d="M12 2C6.486 2 2 6.486 2 12C2 17.514 6.486 22 12 22C17.514 22 22 17.514 22 12C22 6.486 17.514 2 12 2ZM4 12C4 11.101 4.156 10.238 4.431 9.431L6 11L8 13V15L10 17L11 18V19.931C7.061 19.436 4 16.072 4 12ZM18.33 16.873C17.677 16.347 16.687 16 16 16V15C16 14.4696 15.7893 13.9609 15.4142 13.5858C15.0391 13.2107 14.5304 13 14 13H10V10C10.5304 10 11.0391 9.78929 11.4142 9.41421C11.7893 9.03914 12 8.53043 12 8V7H13C13.5304 7 14.0391 6.78929 14.4142 6.41421C14.7893 6.03914 15 5.53043 15 5V4.589C17.928 5.778 20 8.65 20 12C19.9998 13.7647 19.4123 15.4791 18.33 16.873Z" fill="white"/>
</g>
</g>
</svg>
