<svg width="46" height="68" viewBox="0 0 46 68" fill="none" xmlns="http://www.w3.org/2000/svg">
<path d="M34.2886 22.9776C37.1971 22.8917 39.9572 21.6932 41.9837 19.6364C44.0102 17.5796 45.1436 14.8263 45.1436 11.9602C45.1436 9.09412 44.0102 6.34076 41.9837 4.28397C39.9572 2.22718 37.1971 1.02873 34.2886 0.942749H11.9138C9.00525 1.02873 6.24509 2.22718 4.21862 4.28397C2.19215 6.34076 1.05874 9.09412 1.05874 11.9602C1.05874 14.8263 2.19215 17.5796 4.21862 19.6364C6.24509 21.6932 9.00525 22.8917 11.9138 22.9776C8.97983 23.0277 6.18321 24.2108 4.12633 26.2722C2.06944 28.3335 0.91687 31.1081 0.91687 33.9984C0.91687 36.8886 2.06944 39.6633 4.12633 41.7246C6.18321 43.7859 8.97983 44.9691 11.9138 45.0191C8.99416 45.0896 6.21817 46.2814 4.17852 48.3402C2.13886 50.399 0.997148 53.1616 0.997148 56.0382C0.997148 58.9148 2.13886 61.6774 4.17852 63.7362C6.21817 65.795 8.99416 66.9869 11.9138 67.0573C14.8809 67.0556 17.7259 65.8936 19.8237 63.8268C21.9214 61.76 23.1003 58.9574 23.1012 56.0349V22.9776H34.2886Z" fill="#2D2D2D"/>
<path d="M34.2885 45.0159C40.4671 45.0159 45.4759 40.0825 45.4759 33.9968C45.4759 27.9111 40.4672 22.9776 34.2886 22.9776C28.1099 22.9776 23.1011 27.9111 23.1011 33.9968C23.1011 40.0825 28.1099 45.0159 34.2885 45.0159Z" fill="#2D2D2D"/>
</svg>
