<svg width="69" height="68" viewBox="0 0 69 68" fill="none" xmlns="http://www.w3.org/2000/svg">
<path d="M67.1875 30.9692L37.497 1.28291C37.0905 0.876188 36.6079 0.55355 36.0766 0.333424C35.5454 0.113299 34.976 0 34.4009 0C33.8259 0 33.2565 0.113299 32.7252 0.333424C32.194 0.55355 31.7113 0.876188 31.3048 1.28291L25.1423 7.44541L32.9623 15.2654C33.8846 14.9505 34.8768 14.9013 35.8257 15.1232C36.7746 15.3452 37.642 15.8295 38.3289 16.5208C39.0158 17.2121 39.4945 18.0826 39.7104 19.033C39.9263 19.9833 39.8706 20.9752 39.5498 21.8954L47.085 29.4349C48.1999 29.0424 49.4151 29.0412 50.5307 29.4315C51.6463 29.8219 52.5957 30.5805 53.2226 31.5824C53.8495 32.5844 54.1166 33.77 53.9797 34.9439C53.8429 36.1179 53.3103 37.2103 52.4698 38.0412C51.6189 38.8973 50.4971 39.4314 49.2961 39.5524C48.0951 39.6733 46.8894 39.3735 45.8849 38.7041C44.8804 38.0348 44.1394 37.0375 43.7886 35.8825C43.4378 34.7276 43.4988 33.4866 43.9613 32.3717L36.936 25.3422V43.8424C38.0039 44.371 38.8583 45.2496 39.3569 46.3318C39.8555 47.4139 39.9681 48.6343 39.6761 49.7894C39.384 50.9446 38.7048 51.9647 37.7517 52.6799C36.7987 53.395 35.6293 53.7618 34.4386 53.7193C33.2478 53.6768 32.1076 53.2274 31.208 52.4461C30.3084 51.6649 29.7037 50.5989 29.4948 49.4258C29.2858 48.2528 29.4852 47.0436 30.0598 45.9997C30.6343 44.9559 31.5492 44.1405 32.652 43.6894V25.0192C32.0158 24.7584 31.4374 24.3744 30.9503 23.8891C30.4631 23.4038 30.0769 22.8268 29.8137 22.1916C29.5506 21.5563 29.4158 20.8752 29.4172 20.1876C29.4185 19.5 29.556 18.8194 29.8215 18.1852L22.1163 10.4757L1.7588 30.8332C1.35208 31.2397 1.02944 31.7223 0.809316 32.2536C0.58919 32.7848 0.475891 33.3542 0.475891 33.9293C0.475891 34.5043 0.58919 35.0737 0.809316 35.605C1.02944 36.1362 1.35208 36.6189 1.7588 37.0254L31.4493 66.7159C31.8558 67.1226 32.3385 67.4453 32.8697 67.6654C33.401 67.8855 33.9704 67.9988 34.5454 67.9988C35.1205 67.9988 35.6899 67.8855 36.2211 67.6654C36.7524 67.4453 37.235 67.1226 37.6415 66.7159L67.1918 37.1657C68.0122 36.3441 68.4729 35.2305 68.4729 34.0695C68.4729 32.9085 68.0122 31.795 67.1918 30.9734" fill="#2D2D2D"/>
</svg>
