<svg width="69" height="68" viewBox="0 0 69 68" fill="none" xmlns="http://www.w3.org/2000/svg">
<path d="M67.1875 30.9698L37.497 1.28352C37.0905 0.876798 36.6079 0.55416 36.0766 0.334035C35.5454 0.113909 34.976 0.000610352 34.4009 0.000610352C33.8259 0.000610352 33.2565 0.113909 32.7252 0.334035C32.194 0.55416 31.7113 0.876798 31.3048 1.28352L25.1423 7.44602L32.9623 15.266C33.8846 14.9511 34.8768 14.9019 35.8257 15.1238C36.7746 15.3458 37.642 15.8301 38.3289 16.5214C39.0158 17.2128 39.4945 18.0833 39.7104 19.0336C39.9263 19.9839 39.8706 20.9758 39.5498 21.896L47.085 29.4355C48.1999 29.043 49.4151 29.0418 50.5307 29.4321C51.6463 29.8225 52.5957 30.5811 53.2226 31.583C53.8495 32.585 54.1166 33.7706 53.9797 34.9445C53.8429 36.1185 53.3103 37.2109 52.4698 38.0418C51.6189 38.8979 50.4971 39.432 49.2961 39.553C48.0951 39.6739 46.8894 39.3741 45.8849 38.7047C44.8804 38.0354 44.1394 37.0381 43.7886 35.8831C43.4378 34.7282 43.4988 33.4872 43.9613 32.3723L36.936 25.3428V43.843C38.0039 44.3716 38.8583 45.2502 39.3569 46.3324C39.8555 47.4145 39.9681 48.6349 39.6761 49.7901C39.384 50.9452 38.7048 51.9654 37.7517 52.6805C36.7987 53.3956 35.6293 53.7624 34.4386 53.7199C33.2478 53.6774 32.1076 53.228 31.208 52.4468C30.3084 51.6655 29.7037 50.5995 29.4948 49.4264C29.2858 48.2534 29.4852 47.0442 30.0598 46.0003C30.6343 44.9565 31.5492 44.1411 32.652 43.69V25.0198C32.0158 24.759 31.4374 24.375 30.9503 23.8897C30.4631 23.4044 30.0769 22.8274 29.8137 22.1922C29.5506 21.5569 29.4158 20.8758 29.4172 20.1882C29.4185 19.5006 29.556 18.82 29.8215 18.1858L22.1163 10.4763L1.7588 30.8338C1.35208 31.2403 1.02944 31.723 0.809316 32.2542C0.58919 32.7854 0.475891 33.3548 0.475891 33.9299C0.475891 34.5049 0.58919 35.0743 0.809316 35.6056C1.02944 36.1368 1.35208 36.6195 1.7588 37.026L31.4493 66.7165C31.8558 67.1232 32.3385 67.4459 32.8697 67.666C33.401 67.8861 33.9704 67.9994 34.5454 67.9994C35.1205 67.9994 35.6899 67.8861 36.2211 67.666C36.7524 67.4459 37.235 67.1232 37.6415 66.7165L67.1918 37.1663C68.0122 36.3447 68.4729 35.2312 68.4729 34.0701C68.4729 32.9091 68.0122 31.7956 67.1918 30.974" fill="#2D2D2D"/>
</svg>
