<svg width="28" height="29" viewBox="0 0 28 29" fill="none" xmlns="http://www.w3.org/2000/svg">
<g clip-path="url(#clip0_2_3)">
<path fill-rule="evenodd" clip-rule="evenodd" d="M13.8664 0C6.2217 0 0.0298462 6.38535 0.0298462 14.2689C0.0298462 20.5829 3.99056 25.916 9.49058 27.8066C10.1824 27.9314 10.4418 27.5034 10.4418 27.1288C10.4418 26.7899 10.4245 25.6662 10.4245 24.4712C6.94812 25.1312 6.04874 23.5972 5.77201 22.7946C5.61635 22.3844 4.94182 21.118 4.35377 20.7791C3.86949 20.5116 3.17766 19.8517 4.33647 19.8338C5.4261 19.816 6.2044 20.8683 6.46384 21.2964C7.70913 23.4546 9.69813 22.8481 10.4937 22.4736C10.6148 21.5461 10.978 20.9218 11.3758 20.5651C8.29718 20.2084 5.08018 18.9777 5.08018 13.5198C5.08018 11.9681 5.61635 10.6839 6.49843 9.68504C6.36006 9.32832 5.87579 7.86575 6.6368 5.90377C6.6368 5.90377 7.79561 5.52921 10.4418 7.36634C11.5488 7.04529 12.7249 6.88476 13.901 6.88476C15.0771 6.88476 16.2532 7.04529 17.3601 7.36634C20.0064 5.51138 21.1652 5.90377 21.1652 5.90377C21.9262 7.86575 21.4419 9.32832 21.3035 9.68504C22.1856 10.6839 22.7218 11.9502 22.7218 13.5198C22.7218 18.9955 19.4875 20.2084 16.4089 20.5651C16.9104 21.011 17.3428 21.8671 17.3428 23.2049C17.3428 25.1133 17.3255 26.6472 17.3255 27.1288C17.3255 27.5034 17.585 27.9493 18.2768 27.8066C21.0235 26.8502 23.4103 25.0297 25.1013 22.6012C26.7922 20.1728 27.7021 17.2586 27.7029 14.2689C27.7029 6.38535 21.5111 0 13.8664 0Z" fill="#2D2D2D"/>
</g>
<defs>
<clipPath id="clip0_2_3">
<rect width="27.6731" height="28.5379" fill="white" transform="translate(0.0298462)"/>
</clipPath>
</defs>
</svg>
