<svg width="52" height="68" viewBox="0 0 52 68" fill="none" xmlns="http://www.w3.org/2000/svg">
<path d="M5.98 0H9.09075V3.02883H11.937V0H15.0478V9.16867H11.937V6.10017H9.09075V9.16867H5.98287V0H5.98ZM19.136 3.04017H16.399V0H24.9866V3.04017H22.2468V9.16867H19.136V3.04017ZM26.3494 0H29.5924L31.5876 3.2215L33.58 0H36.823V9.16867H33.7266V4.624L31.5876 7.88517H31.533L29.3911 4.62683V9.16867H26.3494V0ZM38.3698 0H41.4834V6.13983H45.8534V9.1715H38.3698V0Z" fill="#2D2D2D"/>
<path fill-rule="evenodd" clip-rule="evenodd" d="M5.88225 62.5373L0 13.3648H51.75L45.8649 62.5317L25.8462 68L5.88225 62.5373ZM17.7761 35.6207L17.2184 29.444H40.6353L41.1815 23.4147H10.534L12.1842 41.6528H33.3931L32.683 49.4728L25.8578 51.2918H25.852L19.0382 49.4785L18.6013 44.6703H12.4545L13.3113 54.1393L25.8462 57.5677L38.4014 54.1393L39.9309 37.2413L40.0804 35.6235H17.7761V35.6207Z" fill="#2D2D2D"/>
</svg>
