<svg width="29" height="29" viewBox="0 0 29 29" fill="none" xmlns="http://www.w3.org/2000/svg">
<path fill-rule="evenodd" clip-rule="evenodd" d="M8.9675 2.09392C10.32 2.03166 10.7513 2.01782 14.1966 2.01782C17.6419 2.01782 18.0731 2.03281 19.4245 2.09392C20.7758 2.15503 21.6983 2.37065 22.5054 2.68313C23.3506 3.00252 24.1174 3.50179 24.7515 4.1475C25.3972 4.78052 25.8954 5.54614 26.2136 6.39248C26.5272 7.19961 26.7417 8.12204 26.8039 9.47111C26.8662 10.8259 26.8801 11.2572 26.8801 14.7013C26.8801 18.1466 26.8651 18.5779 26.8039 19.9304C26.7428 21.2794 26.5272 22.2019 26.2136 23.009C25.8953 23.8554 25.3964 24.6223 24.7515 25.2563C24.1174 25.902 23.3506 26.4001 22.5054 26.7184C21.6983 27.032 20.7758 27.2464 19.4268 27.3087C18.0731 27.371 17.6419 27.3848 14.1966 27.3848C10.7513 27.3848 10.32 27.3698 8.9675 27.3087C7.61843 27.2476 6.696 27.032 5.88887 26.7184C5.04244 26.4001 4.27555 25.9011 3.64158 25.2563C2.99632 24.6229 2.49697 23.8564 2.17837 23.0102C1.86589 22.203 1.65143 21.2806 1.58916 19.9315C1.5269 18.5767 1.51306 18.1455 1.51306 14.7013C1.51306 11.256 1.52805 10.8248 1.58916 9.47341C1.65027 8.12204 1.86589 7.19961 2.17837 6.39248C2.49744 5.54623 2.99717 4.77973 3.64274 4.14634C4.2758 3.50122 5.04192 3.00188 5.88771 2.68313C6.69485 2.37065 7.61728 2.15619 8.96634 2.09392H8.9675ZM19.3218 4.37695C17.9843 4.31584 17.583 4.30316 14.1966 4.30316C10.8101 4.30316 10.4088 4.31584 9.07127 4.37695C7.83405 4.43345 7.16298 4.63985 6.7156 4.81396C6.12409 5.04457 5.70092 5.31784 5.257 5.76176C4.83619 6.17115 4.51234 6.66953 4.3092 7.22036C4.13509 7.66774 3.92869 8.33881 3.87219 9.57603C3.81108 10.9136 3.7984 11.3148 3.7984 14.7013C3.7984 18.0878 3.81108 18.4891 3.87219 19.8266C3.92869 21.0638 4.13509 21.7349 4.3092 22.1823C4.51213 22.7323 4.83614 23.2315 5.257 23.6409C5.66633 24.0617 6.1656 24.3857 6.7156 24.5887C7.16298 24.7628 7.83405 24.9692 9.07127 25.0257C10.4088 25.0868 10.8089 25.0995 14.1966 25.0995C17.5842 25.0995 17.9843 25.0868 19.3218 25.0257C20.5591 24.9692 21.2301 24.7628 21.6775 24.5887C22.269 24.3581 22.6922 24.0848 23.1361 23.6409C23.557 23.2315 23.881 22.7323 24.0839 22.1823C24.258 21.7349 24.4644 21.0638 24.5209 19.8266C24.582 18.4891 24.5947 18.0878 24.5947 14.7013C24.5947 11.3148 24.582 10.9136 24.5209 9.57603C24.4644 8.33881 24.258 7.66774 24.0839 7.22036C23.8533 6.62885 23.58 6.20568 23.1361 5.76176C22.7267 5.34098 22.2283 5.01714 21.6775 4.81396C21.2301 4.63985 20.5591 4.43345 19.3218 4.37695ZM12.5765 18.6113C13.4813 18.9879 14.4887 19.0387 15.4268 18.7551C16.3648 18.4715 17.1753 17.8709 17.7198 17.0561C18.2643 16.2413 18.509 15.2627 18.4121 14.2875C18.3153 13.3123 17.8828 12.401 17.1887 11.7092C16.7462 11.2669 16.2112 10.9283 15.6221 10.7177C15.033 10.5071 14.4046 10.4297 13.782 10.4911C13.1595 10.5525 12.5583 10.7512 12.0217 11.0728C11.4851 11.3945 11.0265 11.8311 10.679 12.3512C10.3314 12.8714 10.1035 13.4621 10.0116 14.0809C9.91973 14.6997 9.96621 15.3312 10.1477 15.9299C10.3292 16.5286 10.6411 17.0796 11.0611 17.5433C11.4811 18.0069 11.9986 18.3717 12.5765 18.6113ZM9.58668 10.0914C10.1921 9.48607 10.9107 9.00585 11.7017 8.67823C12.4927 8.3506 13.3404 8.18197 14.1966 8.18197C15.0527 8.18197 15.9004 8.3506 16.6914 8.67823C17.4824 9.00585 18.2011 9.48607 18.8064 10.0914C19.4118 10.6968 19.892 11.4155 20.2196 12.2065C20.5473 12.9974 20.7159 13.8452 20.7159 14.7013C20.7159 15.5574 20.5473 16.4052 20.2196 17.1962C19.892 17.9871 19.4118 18.7058 18.8064 19.3112C17.5838 20.5338 15.9256 21.2207 14.1966 21.2207C12.4675 21.2207 10.8093 20.5338 9.58668 19.3112C8.36407 18.0886 7.67721 16.4304 7.67721 14.7013C7.67721 12.9723 8.36407 11.3141 9.58668 10.0914ZM22.1618 9.15286C22.3118 9.01135 22.4319 8.84117 22.515 8.65241C22.598 8.46365 22.6424 8.26014 22.6454 8.05393C22.6484 7.84772 22.61 7.64301 22.5325 7.4519C22.4549 7.2608 22.3399 7.0872 22.194 6.94137C22.0482 6.79554 21.8746 6.68046 21.6835 6.60293C21.4924 6.5254 21.2877 6.487 21.0815 6.49C20.8753 6.49301 20.6717 6.53736 20.483 6.62043C20.2942 6.7035 20.1241 6.82359 19.9825 6.97361C19.7073 7.26536 19.5566 7.65289 19.5625 8.05393C19.5683 8.45497 19.7302 8.83794 20.0138 9.12155C20.2975 9.40516 20.6804 9.56707 21.0815 9.57292C21.4825 9.57876 21.87 9.42808 22.1618 9.15286Z" fill="#2D2D2D"/>
</svg>
