<svg width="67" height="66" viewBox="0 0 67 66" fill="none" xmlns="http://www.w3.org/2000/svg">
<path fill-rule="evenodd" clip-rule="evenodd" d="M0.75 0H66.75V66H0.75V0ZM51.2043 55.33C48.1435 55.33 46.4137 53.735 45.0855 51.5625L40.0448 54.4913C41.8652 58.0883 45.586 60.8328 51.3473 60.8328C57.2378 60.8328 61.624 57.7747 61.624 52.1895C61.624 47.0113 58.6485 44.7095 53.3795 42.4463L51.8285 41.7835C49.1665 40.6285 48.0143 39.8778 48.0143 38.016C48.0143 36.5117 49.1693 35.3595 50.9842 35.3595C52.7635 35.3595 53.9103 36.1103 54.9745 38.016L59.8035 34.9167C57.7603 31.3225 54.9277 29.9502 50.9842 29.9502C45.4458 29.9502 41.901 33.4923 41.901 38.1453C41.901 43.1915 44.871 45.5812 49.348 47.487L50.899 48.1525C53.7288 49.39 55.4145 50.1435 55.4145 52.2692C55.4145 54.0457 53.7728 55.33 51.2043 55.33ZM27.1693 55.2887C25.038 55.2887 24.1497 53.8312 23.1762 52.0987L18.1272 55.1567C19.5903 58.2532 22.4667 60.8218 27.4305 60.8218C32.9277 60.8218 36.6925 57.8985 36.6925 51.4772V30.3022H30.4912V51.3947C30.4912 54.494 29.2043 55.2887 27.1665 55.2887H27.1693Z" fill="#2D2D2D"/>
</svg>
