<svg width="28" height="28" viewBox="0 0 28 28" fill="none" xmlns="http://www.w3.org/2000/svg">
<path fill-rule="evenodd" clip-rule="evenodd" d="M11.0573 10.7481H15.2059V12.8146C15.8035 11.6261 17.336 10.5582 19.6382 10.5582C24.0515 10.5582 25.0993 12.924 25.0993 17.2647V25.3039H20.6312V18.2533C20.6312 15.7813 20.0336 14.3873 18.5123 14.3873C16.4022 14.3873 15.5254 15.8897 15.5254 18.2522V25.3039H11.0573V10.7481ZM3.39573 25.114H7.86378V10.5582H3.39573V25.114ZM8.50383 5.81201C8.504 6.18651 8.42972 6.55732 8.28533 6.90287C8.14093 7.24842 7.9293 7.56182 7.66272 7.82486C7.12253 8.36173 6.39135 8.66223 5.62976 8.66039C4.86951 8.65988 4.14001 8.36013 3.59903 7.82598C3.33341 7.56204 3.12249 7.24829 2.97835 6.90269C2.83421 6.5571 2.75968 6.18646 2.75903 5.81201C2.75903 5.05579 3.06063 4.33196 3.60014 3.79803C4.14065 3.26316 4.87046 2.96329 5.63087 2.96362C6.39268 2.96362 7.1232 3.2641 7.66272 3.79803C8.20112 4.33196 8.50383 5.05579 8.50383 5.81201Z" fill="#2D2D2D"/>
</svg>
