<svg width="29" height="29" viewBox="0 0 29 29" fill="none" xmlns="http://www.w3.org/2000/svg">
<path d="M24.9706 5.35083H3.56725C3.0942 5.35083 2.64053 5.53875 2.30604 5.87324C1.97155 6.20773 1.78363 6.6614 1.78363 7.13445V21.4034C1.78363 21.8764 1.97155 22.3301 2.30604 22.6646C2.64053 22.9991 3.0942 23.187 3.56725 23.187H24.9706C25.4437 23.187 25.8974 22.9991 26.2319 22.6646C26.5664 22.3301 26.7543 21.8764 26.7543 21.4034V7.13445C26.7543 6.6614 26.5664 6.20773 26.2319 5.87324C25.8974 5.53875 25.4437 5.35083 24.9706 5.35083ZM23.0087 7.13445L14.2689 13.1809L5.52923 7.13445H23.0087ZM3.56725 21.4034V7.94599L13.7606 15.0002C13.9099 15.1038 14.0873 15.1593 14.2689 15.1593C14.4506 15.1593 14.628 15.1038 14.7773 15.0002L24.9706 7.94599V21.4034H3.56725Z" fill="#2D2D2D"/>
</svg>
