<svg width="66" height="67" viewBox="0 0 66 67" fill="none" xmlns="http://www.w3.org/2000/svg">
<path d="M0 0.5V66.5H66V0.5H0ZM34.0435 31.1536C31.6638 34.5846 26.8995 36.3161 20.3249 36.0056V48.5265H14.7121V13.8418L23.2034 13.6979C30.2618 13.4324 35.6729 17.1709 35.7244 24.6359C35.6636 27.2645 35.2205 29.4569 34.0435 31.1536ZM52.4192 27.3703C52.4124 27.5935 52.2983 27.6634 52.1314 27.6581C50.037 27.4682 47.8785 27.787 46.0868 28.2338V48.5265H40.4737V28.0898C40.4963 26.8787 40.4298 25.9995 40.3299 25.0675C40.3087 24.9609 40.3054 24.7372 40.6177 24.6356C43.4236 23.6179 47.6619 22.3897 52.1314 22.477C52.308 22.4761 52.4178 22.5556 52.4192 22.7648V27.3703ZM29.9676 24.7796C29.9742 26.5106 29.6879 27.7478 29.0274 28.6348C27.3259 30.9194 23.973 30.8804 22.9157 30.9683H20.3249V18.7351H23.3472C28.2573 18.7695 29.8928 21.2536 29.9676 24.7796Z" fill="#2D2D2D"/>
</svg>
