<svg width="66" height="67" viewBox="0 0 66 67" fill="none" xmlns="http://www.w3.org/2000/svg">
<path fill-rule="evenodd" clip-rule="evenodd" d="M66 67H0V0H66V67ZM52.3888 28.3983V23.2019C51.5457 22.8208 46.7181 21.4189 42.9041 22.8963C37.4101 25.0244 37.6075 31.4352 39.6923 33.9512C42.3935 37.2112 49.113 38.4266 48.0135 41.6264C47.4441 43.2833 44.7859 43.5717 42.4424 43.0154C40.26 42.4975 38.3625 41.1852 38.3625 41.1852V46.6872C38.3625 46.6872 40.2381 47.7488 42.5401 48.0013C45.4911 48.3249 49.1902 47.7138 51.0434 46.0417C54.3421 43.065 54.8487 36.471 48.5974 33.409C43.3954 30.8612 43.481 30.134 43.5175 28.8271C43.5664 27.0768 47.1866 25.9993 52.3888 28.3983ZM24.3362 13.8155C28.6645 13.9683 35.0254 15.9934 35.0254 24.6284C35.0254 33.2634 27.2428 36.0969 20.1415 35.4795V47.7061H14.8513V13.93C14.8513 13.93 20.0078 13.6626 24.3362 13.8155ZM25.71 30.1304C27.9911 29.2854 29.4738 27.469 29.4738 24.6474C29.4738 21.6558 27.9649 19.63 25.6572 19.0577C23.1583 18.4378 20.1415 18.8032 20.1415 18.8032V30.5863C20.1415 30.5863 24.3174 30.6462 25.71 30.1304Z" fill="#2D2D2D"/>
</svg>
