<svg width="60" height="58" viewBox="0 0 60 58" fill="none" xmlns="http://www.w3.org/2000/svg">
<path d="M57.8165 6.13323L45.6281 0.2999C45.1766 0.118665 44.6955 0.0198373 44.2081 0.00823378H43.9715C43.2026 0.00394727 42.4539 0.250014 41.8415 0.708234L41.4273 1.05823L18.1156 22.0291L7.96854 14.5916C7.51144 14.2468 6.94603 14.0713 6.37104 14.0957C5.80776 14.0894 5.25759 14.2634 4.80313 14.5916L1.54896 17.5082C1.29382 17.7307 1.09037 18.0048 0.952519 18.3118C0.814668 18.6189 0.745661 18.9516 0.750211 19.2874C0.748987 19.6269 0.819359 19.963 0.956861 20.2743C1.09436 20.5856 1.29599 20.8653 1.54896 21.0957L10.424 28.9999L1.54896 36.9332C1.29899 37.1625 1.09963 37.4401 0.963302 37.7488C0.826978 38.0574 0.756622 38.3904 0.756622 38.727C0.756622 39.0636 0.826978 39.3966 0.963302 39.7052C1.09963 40.0138 1.29899 40.2915 1.54896 40.5207L4.80313 43.4374C5.29382 43.8606 5.92629 44.0892 6.57813 44.0791C7.07881 44.042 7.55964 43.8705 7.96854 43.5832L18.1156 35.9707L41.4273 56.9416C42.0237 57.5475 42.8223 57.9204 43.6756 57.9916H44.1785C44.6841 57.999 45.1832 57.8785 45.6281 57.6416L57.8165 51.8082C58.4332 51.5172 58.956 51.0633 59.3268 50.4969C59.6976 49.9305 59.9018 49.2739 59.9169 48.5999V9.42907C59.9149 8.74092 59.7169 8.06715 59.3456 7.48448C58.9742 6.9018 58.4444 6.43361 57.8165 6.13323ZM45.1252 42.2124L27.3752 28.9999L45.1252 15.7874V42.2124Z" fill="#2D2D2D"/>
</svg>
