<svg width="71" height="68" viewBox="0 0 71 68" fill="none" xmlns="http://www.w3.org/2000/svg">
<path d="M56.0194 32.5252C56.0194 28.9212 54.685 26.4265 53.5431 24.4843L53.1931 23.9318C51.8063 21.7643 50.5944 19.8603 50.5944 17.6418C50.5944 14.9643 52.6856 12.4653 55.6344 12.4653C55.7219 12.4653 55.805 12.4738 55.8881 12.478L56.0238 12.4907C50.4945 7.55709 43.2578 4.82339 35.75 4.83225C30.7742 4.82977 25.8759 6.02999 21.4966 8.32477C17.1172 10.6196 13.3945 13.9368 10.6637 17.9775C11.3637 17.9988 12.0331 18.0158 12.5975 18.0158C15.7344 18.0158 20.595 17.646 20.595 17.646C22.2137 17.5525 22.4062 19.8603 20.7875 20.0473C20.7875 20.0473 19.1644 20.2343 17.3531 20.3235L28.2906 51.918L34.8531 32.7675L30.1719 20.3193C28.5575 20.2258 27.0262 20.043 27.0262 20.043C25.4075 19.9495 25.6 17.544 27.2144 17.6375C27.2144 17.6375 32.1756 18.0073 35.1244 18.0073C38.2656 18.0073 43.1306 17.6375 43.1306 17.6375C44.7494 17.544 44.9375 19.856 43.3187 20.043C43.3187 20.043 41.6912 20.2258 39.8844 20.3193L50.7344 51.6715L53.7269 41.9518L53.9631 41.2165C55.1444 37.5615 56.015 34.8627 56.015 32.521L56.0194 32.5252ZM5.72437 34C5.72408 39.4772 7.31109 44.8438 10.3038 49.4857C13.2965 54.1276 17.5741 57.8573 22.6469 60.248L8.31875 22.1255C6.60301 25.8621 5.71893 29.9085 5.72437 34Z" fill="#2D2D2D"/>
<path d="M27.2669 61.9778L36.2794 36.55L45.5062 61.115C45.5675 61.2552 45.6375 61.387 45.7206 61.5145C39.7726 63.5501 33.3152 63.7122 27.2669 61.9778ZM62.0919 20.0047C62.2231 20.9355 62.2975 21.93 62.2975 23.0053C62.2975 25.9633 61.7287 29.291 60.0137 33.4518L50.8437 59.2067C57.6106 55.3875 62.5741 49.1517 64.6761 41.8285C66.7781 34.5054 65.8524 26.6744 62.0962 20.0047H62.0919Z" fill="#2D2D2D"/>
<path fill-rule="evenodd" clip-rule="evenodd" d="M0.75 34C0.75 15.2533 16.4519 0 35.75 0C55.0438 0 70.75 15.2533 70.75 34C70.75 52.7467 55.0438 68 35.75 68C16.4519 68 0.75 52.7467 0.75 34ZM2.35563 34C2.35563 51.8883 17.3356 66.4403 35.75 66.4403C54.16 66.4403 69.14 51.8883 69.14 34C69.14 16.1075 54.16 1.55975 35.75 1.55975C17.3312 1.55975 2.35563 16.1075 2.35563 34Z" fill="#2D2D2D"/>
</svg>
