<svg width="67" height="67" viewBox="0 0 67 67" fill="none" xmlns="http://www.w3.org/2000/svg">
<path d="M0 0V67H67V0H0ZM28.4669 48.0944L22.2723 35.3281L16.2955 48.0639H10.4705L19.0428 31.7329L10.7545 15.2189H16.8005L22.6685 27.7719L28.4873 15.1885H34.1627L25.8676 31.2148L34.6525 48.0944H28.4669ZM55.026 46.7537C52.4666 47.9725 49.7853 48.521 47.226 48.521C40.6144 48.5514 35.8918 44.4686 35.8918 36.1812C36.107 27.6915 41.7638 22.9543 49.694 23.5977V15.2189H55.1173V43.4328C55.1286 46.7975 55.4999 46.4739 55.026 46.7537ZM49.6938 28.3813V43.4631C44.3408 44.8522 41.381 41.5944 41.4065 35.9374C41.4267 30.1359 45.2383 27.1249 49.6938 28.3813Z" fill="#2D2D2D"/>
</svg>
